<svg fill="#000000" xmlns="http://www.w3.org/2000/svg"  viewBox="0 0 24 24" width="32px" height="32px"><path d="M17.969,9.021C17.992,8.945,18.003,8.875,18,8.813C17.992,8.632,17.868,8.5,17.575,8.5h-1.309	c-0.33,0-0.483,0.2-0.572,0.401c0,0-0.816,1.679-1.757,2.787C13.632,12.008,13.477,12,13.312,12C13.224,12,13,11.893,13,11.599	V9.007C13,8.66,12.914,8.5,12.634,8.5H10.31C10.106,8.5,10,8.66,10,8.821c0,0.333,0.449,0.413,0.5,1.348v1.811	c0,0.44-0.076,0.52-0.241,0.52c-0.445,0-1.321-1.5-1.908-3.466C8.224,8.647,8.097,8.5,7.767,8.5H6.445C6.064,8.5,6,8.687,6,8.887	c0,0.361,0.3,2.309,1.938,4.55C9.125,15.063,10.69,16,12.075,16C12.914,16,13,15.786,13,15.453v-1.486	c0-0.401,0.092-0.467,0.359-0.467c0.191,0,0.579,0.125,1.329,1c0.865,1.009,1.022,1.5,1.518,1.5h1.309	c0.304,0,0.479-0.127,0.486-0.375c0.001-0.063-0.007-0.134-0.028-0.212c-0.097-0.288-0.542-0.992-1.097-1.663	c-0.308-0.372-0.611-0.74-0.75-0.939C16.031,12.68,15.996,12.588,16,12.5c0.004-0.092,0.052-0.181,0.125-0.304	C16.112,12.196,17.804,9.821,17.969,9.021z"/><circle cx="12" cy="12" r="9" fill="none" stroke="#000000" stroke-miterlimit="10" stroke-width="2"/></svg>